<?xml version="1.0" encoding="utf-8"?>
<!-- Generator: Adobe Illustrator 15.0.2, SVG Export Plug-In . SVG Version: 6.00 Build 0)  -->
<!DOCTYPE svg PUBLIC "-//W3C//DTD SVG 1.1//EN" "http://www.w3.org/Graphics/SVG/1.1/DTD/svg11.dtd">
<svg version="1.1" id="Layer_1" xmlns="http://www.w3.org/2000/svg" xmlns:xlink="http://www.w3.org/1999/xlink" x="0px" y="0px"
	 width="20px" height="20px" viewBox="0 0 511.999 486.151" enable-background="new 0 0 511.999 486.151"
	 xml:space="preserve">
<path d="M143.373,273.305l75.765-75.757L31.326,9.729c-41.769,41.768-41.769,109.636,0,151.403L143.373,273.305z M325.021,224.72
	c40.833,19.145,98.536,5.621,141.102-36.951c51.272-51.271,61.051-124.493,21.806-163.718
	c-39.35-39.219-112.714-29.447-163.836,21.825c-42.578,42.565-55.965,100.263-36.957,141.096
	C227.576,246.4,25.704,448.266,25.704,448.266l37.886,37.886l184.196-184.19l184.19,184.19l37.886-37.886l-184.19-184.19
	L325.021,224.72z"/>
</svg>
