<?xml version="1.0"?><svg width="26.667" height="20" viewBox="0 0 1024 1024" enable-background="new 0 0 1024 1024" xmlns="http://www.w3.org/2000/svg">
 <title>fdgd</title>
 <g display="inline">
  <title>sgfdg</title>
  <g externalResourcesRequired="false" id="svg_1">
   <rect ry="50" rx="50" id="svg_8" height="1446" width="2000" y="22.000015" x="18" stroke-linecap="null" stroke-linejoin="null" stroke-dasharray="null" stroke-width="29" stroke="#000000" fill="none"/>
   <g externalResourcesRequired="false" id="svg_10">
    <g id="svg_11">
     <path fill="#000000" id="svg_12" d="m428.530365,506.284027c64.772705,0 117.277008,-51.379181 117.277008,-114.75531c0,-63.38501 -52.504303,-114.77298 -117.277008,-114.77298c-64.763977,0 -117.271179,51.38797 -117.271179,114.77298c0,63.376129 52.507202,114.75531 117.271179,114.75531z"/>
     <path fill="#000000" id="svg_13" d="m428.530365,391.528717"/>
    </g>
    <path fill="#000000" id="svg_14" d="m681.762085,358.98468l468.766357,0c68.772339,0 109.283813,43.316589 109.283813,101.307922l0,166.043518l-578.050171,0l0,-267.35144z"/>
    <path fill="#000000" id="svg_15" d="m554.166504,418.397156l0,99.587341l-180.231598,0c-87.011963,0.305359 -87.153137,109.758057 0,109.758057l236.28244,0c34.504761,0 56.107544,-27.253113 56.107544,-58.082397l0,-151.263c0,-82.863281 -112.158386,-82.863281 -112.158386,0z"/>
    <path fill="#000000" id="svg_16" d="m288.867065,263.299469c0,-90.37085 -128.124023,-90.37085 -128.124023,0l0,724.669952l130.968414,0l0,-187.148499l996.493744,0l0,185.742065l128.120605,0l0,-559.7099c0,-95.371033 -129.542603,-95.371033 -129.542603,0l0,223.403625l-997.916138,0l0,-386.957245l0.000061,0l-0.000061,0z"/>
   </g>
  </g>
 </g>
</svg>