<?xml version="1.0" encoding="utf-8"?>
<!-- Generator: Adobe Illustrator 15.0.2, SVG Export Plug-In . SVG Version: 6.00 Build 0)  -->
<!DOCTYPE svg PUBLIC "-//W3C//DTD SVG 1.1//EN" "http://www.w3.org/Graphics/SVG/1.1/DTD/svg11.dtd">
<svg version="1.1" id="Layer_1" xmlns="http://www.w3.org/2000/svg" xmlns:xlink="http://www.w3.org/1999/xlink" x="0px" y="0px"
   width="20px" height="20px" viewBox="0 0 1024 1024" enable-background="new 0 0 1024 1024" xml:space="preserve">
<g>
  <path d="M819.2,0H204.8C92.2,0,0,92.2,0,204.8v614.4C0,931.8,92.2,1024,204.8,1024h614.4c112.6,0,204.8-92.2,204.8-204.8V204.8
    C1024,92.2,931.8,0,819.2,0z M311.2,701.6c-34.8,0-62.8-28.199-62.8-62.8c0-34.8,27.8-62.8,62.8-62.8c34.6,0,62.6,28,62.6,62.8
    C373.8,673.4,345.8,701.6,311.2,701.6z M713,701.6c-34.8,0-62.8-28.199-62.8-62.8c0-34.8,28-62.8,62.8-62.8
    c34.6,0,62.8,28,62.8,62.8C775.8,673.4,747.6,701.6,713,701.6z M896,658.2H788.2c1.6-6.4,2.8-12.8,2.8-19.601c0-43-34.8-78-77.8-78
    c-43.2,0-78,35-78,78c0,6.801,1.2,13.4,2.8,19.601H386.2c1.6-6.4,2.8-12.8,2.8-19.601c0-43-35-78-77.8-78c-43,0-78,35-78,78
    c0,6.801,1.2,13.4,2.8,19.601H128V362.6c0-22.2,18.2-40.2,40.2-40.2h517.2c22,0,48.399,16.2,58.199,35.8L799.8,470
    c63.2,7.4,96.2,79.2,96.2,101.2V658.2z"/>
  <path d="M713,607.2c-17.4,0-31.4,14.2-31.4,31.399c0,17.4,14,31.4,31.4,31.4c17.2,0,31.4-14,31.4-31.4
    C744.4,621.4,730.4,607.2,713,607.2z"/>
  <path d="M676.6,352.2h-39.8V470H761.4L713.6,375C707.4,362.6,690.8,352.2,676.6,352.2z"/>
  <path d="M311,607.2c-17.2,0-31.4,14-31.4,31.399c0,17.4,14.2,31.4,31.4,31.4c17.4,0,31.4-14,31.4-31.4
    C342.4,621.4,328.4,607.2,311,607.2z"/>
  <rect x="465.8" y="352.2" width="133" height="117.8"/>
  <rect x="312.2" y="352.2" width="133" height="117.8"/>
  <rect x="158.6" y="352.2" width="133.2" height="117.8"/>
</g>
</svg>
