<?xml version="1.0"?><svg width="26.667" height="20" viewBox="0 0 1024 1024" enable-background="new 0 0 1024 1024" xmlns="http://www.w3.org/2000/svg">
 <title>Resized skier</title>

 <metadata id="metadata3070">image/svg+xml</metadata>
 <g>
  <title>Layer 1</title>
  <g id="layer1">
   <path fill="#000000" id="path6676" d="m369.314301,234.750763c0,0 -1.956909,-16.959198 -2.60907,-20.220627c-0.652344,-3.261322 2.60907,-45.659424 2.60907,-45.659424l-0.652344,-18.263824l3.913696,-15.002396l16.306915,-9.78418l13.045654,-18.9161l19.568298,-22.829681l39.78894,-6.52282l28.700317,-9.784164l6.522736,-10.436478l4.56601,2.609119c0,0 5.870453,-16.306923 8.479614,-15.002399c2.60907,1.304546 7.174988,0.652264 7.174988,0.652264l21.52533,-24.786541l9.131836,-7.827354l-5.218201,-2.609119c0,0 8.479492,-5.218237 12.39325,-5.870504c3.913696,-0.652266 30.004822,5.870504 30.004822,5.870504l16.959229,11.741007c0,0 7.175049,11.088743 7.175049,14.350126c0,3.261383 4.565918,10.436474 6.522827,15.654716c1.956848,5.218182 0.652283,12.393284 0.652283,12.393284l-6.522766,3.913643c0,0 7.174988,6.522766 6.522766,9.131897c-0.652283,2.609116 -18.263916,22.82975 -18.263916,22.82975l-12.393188,15.002388l-7.827454,-3.913658l-7.827209,4.565987l-5.870483,3.913651c0,0 -1.956909,1.304504 3.913574,7.827286c5.870605,6.522827 16.307068,19.568436 16.307068,19.568436l1.304504,14.350082l7.17511,5.218231l0,15.654648c0,0 0.652161,7.175095 6.522766,4.565964c5.870422,-2.609131 17.61145,3.913651 17.61145,3.913651l-1.95697,13.045593l7.175232,-4.565948l7.175049,-1.304565c0,0 5.218323,3.261429 7.175049,6.522797c1.956787,3.261383 6.522827,0 9.784241,-1.956863c3.261292,-1.956787 7.174988,-1.956787 11.088623,0.652252c3.913696,2.609131 9.131897,7.17511 9.131897,7.17511l22.829834,1.956848l9.131836,-6.522827l20.220703,-20.220566l18.916077,1.30452l1.956787,15.002396c0,0 0.652222,6.522827 1.956665,9.78418c1.304688,3.261414 3.261536,16.306931 1.95697,18.916138c-1.304565,2.60907 0.652344,7.174973 -6.522827,8.479645c-7.174988,1.304504 -13.697815,4.565918 -13.697815,4.565918l3.913757,225.03598l5.870483,84.796234l-7.827332,0l-10.436462,-142.848969l-1.304565,-93.928131l0.652222,-63.271011l-0.652222,-9.784103l-6.522766,1.956833l1.956909,6.522781l-5.870544,-1.304657l-3.913818,-2.60907l-9.784058,8.479675l-13.045654,2.609009l-5.870544,-3.261383c0,0 -5.870483,9.131958 -8.479553,7.17511c-2.609131,-1.956879 -14.350098,-4.565948 -14.350098,-4.565948l-37.832092,4.565948l-32.614014,0l-4.565979,-9.131836l-9.784119,-4.56604l-42.398193,41.093597l7.827515,22.829651l13.045471,22.829895l39.136719,64.575409l22.829712,25.438873c0,0 17.611633,18.263763 18.263794,20.872925c0.652344,2.6091 0,14.350128 0,14.350128l21.525269,19.568359l9.784119,21.525208l14.350159,45.007263l12.393188,25.438843l2.609131,18.915955c0,0 22.829834,20.220703 25.438782,21.525452c2.609314,1.304321 17.611694,31.961609 17.611694,31.961609l4.565918,9.78418l35.875366,21.525024l5.581055,3.051392l82.476501,38.694519l36.527466,15.002258l3.261597,7.827454l-33.918579,19.568237l-112.192017,-65.227661l-108.93042,-61.966614l-21.525146,-13.697693l-4.565918,-46.312012l-35.875366,-44.354797l-14.350098,-22.829773l-16.307007,-28.700195l-2.609009,-18.263733l-18.916199,-15.002563l-19.568298,-17.611389l-5.870575,-9.78418l-2.608978,42.398132c0,0 -5.870544,13.045502 -7.17511,15.654602c-1.304565,2.609131 3.261353,25.438873 3.261353,28.700226c0,3.261353 7.175079,28.700287 7.827423,31.309479c0.652252,2.609009 7.827271,30.0047 7.827271,30.0047c0,0 11.740997,22.829895 15.654755,26.091125c3.913635,3.261353 67.836853,50.877686 67.836853,50.877686l21.525208,11.088806l11.740967,-1.304504l5.870605,13.045471l-52.834656,1.304504l-136.326172,-109.582825l-96.537109,-78.925537l39.136749,3.261353l51.529938,41.74585l-1.956879,-24.78653l-9.131897,-10.436493l10.436493,-6.522827l-1.304596,-7.174988l-5.218231,-13.045624l-4.565887,-55.443573l0.652222,-20.220703l-43.050385,-15.654694c0,0 -16.306915,-13.697845 -17.611572,-16.959198c-1.304474,-3.261414 -10.43631,-27.395752 -10.43631,-27.395752l8.479614,-24.134216l6.522736,-28.048065l1.304596,-22.17749l-296.786736,98.49411l-0.652206,15.00238l-12.393326,-9.131866l-16.959278,6.522797l-6.522755,-7.827393l22.177486,-3.913635l2.609051,-16.307037c0,0 9.784264,1.304535 11.088821,5.218262c1.304543,3.913727 298.091164,-101.755386 297.438942,-104.364563z"/>
  </g>
 </g>
</svg>